# xmcd
#
# Track frame offsets:
#	150
#	18151
#	33530
#	62476
#	81075
#	95952
#	111400
#	128938
#	143907
#	157322
#
# Disc length: 2300 seconds
#
# Revision: 8
# Processed by: cddbd v1.5.1PL0 Copyright (c) Steve Scherf et al.
# Submitted via: EasyCDDAExtractor 8.2.1.1
#
DISCID=8d08fa0a
DTITLE=Chet Atkins and Mark Knopfler - Neck and Neck
DYEAR=1990
DGENRE=Blues
TTITLE0=Poor Boy Blues
TTITLE1=Sweet Dreams
TTITLE2=There'll Be Some Changes Made
TTITLE3=Just One Time
TTITLE4=So Soft, Your Goodbye
TTITLE5=Yakety Axe
TTITLE6=Tears
TTITLE7=Tahitian Skies
TTITLE8=I'll See You in My Dreams
TTITLE9=The Next Time I'm in Town
EXTD=YEAR: 1990
EXTT0=
EXTT1=
EXTT2=
EXTT3=
EXTT4=
EXTT5=
EXTT6=
EXTT7=
EXTT8=
EXTT9=
PLAYORDER=
